# xmcd
#
# Track frame offsets: 
#        150
#        15920
#        35034
#        60859
#        79932
#        94867
#        112184
#        132800
#        154140
#        177412
#        195210
#        212073
#        224569
#        241279
#
# Disc length: 3629 seconds
#
# Revision: 0
# Processed by: cddbd v1.5.2PL0 Copyright (c) Steve Scherf et al.
# Submitted via: ExactAudioCopy v0.99pb5
#
DISCID=bb0e2b0e
DTITLE=Jeremias Session Band - Trastland
DYEAR=2010
DGENRE=Country
TTITLE0=En Fågel
TTITLE1=En Sommarvän
TTITLE2=Sommar
TTITLE3=Man Borde Inte Sova
TTITLE4=Serenad
TTITLE5=Ett Märkvärdigt Träd
TTITLE6=Snöfallet - Columbine Och Pierrot
TTITLE7=Tess Lördan
TTITLE8=Bergslagsstad
TTITLE9=Trastland
TTITLE10=Tak Över Huve
TTITLE11=Man Kallar Det Att Glömma
TTITLE12=Mor Sol
TTITLE13=Vi Lyckliga
EXTD=
EXTT0=
EXTT1=
EXTT2=
EXTT3=
EXTT4=
EXTT5=
EXTT6=
EXTT7=
EXTT8=
EXTT9=
EXTT10=
EXTT11=
EXTT12=
EXTT13=
PLAYORDER=
